<svg width="10" height="10" viewBox="0 0 10 10" fill="none" xmlns="http://www.w3.org/2000/svg">
<path fill-rule="evenodd" clip-rule="evenodd" d="M2.3904 2.4012C2.1704 2.6212 1.88507 2.73986 1.56907 2.73986C1.27307 2.73986 0.982405 2.61853 0.749071 2.39986C0.527738 2.17986 0.402405 1.87853 0.402405 1.5732C0.402405 1.28253 0.525071 0.983864 0.741071 0.753197C0.859738 0.633197 1.00107 0.54253 1.1424 0.49453C1.54507 0.31053 2.07974 0.41853 2.39707 0.751864C2.5104 0.865197 2.59707 0.989197 2.6544 1.11853C2.71707 1.2572 2.74907 1.41453 2.74907 1.5732C2.74907 1.89053 2.6224 2.1852 2.3904 2.4012ZM9.254 0.746397C8.79934 0.293064 8.05934 0.293064 7.60467 0.746397L0.751337 7.59973C0.296671 8.0544 0.296671 8.7944 0.751337 9.2504C0.972671 9.4704 1.26467 9.59173 1.57667 9.59173C1.88867 9.59173 2.18067 9.4704 2.40067 9.2504L9.254 2.39706C9.70867 1.94106 9.70867 1.2024 9.254 0.746397ZM8.8744 7.35186C8.4424 7.17053 7.9304 7.2692 7.58907 7.61053C7.5184 7.6932 7.4184 7.8212 7.3504 7.97186C7.2784 8.13453 7.26907 8.3092 7.26907 8.42653C7.26907 8.54386 7.2784 8.7172 7.3504 8.87986C7.41707 9.0292 7.49707 9.15053 7.6024 9.25586C7.84374 9.47986 8.12374 9.5932 8.43574 9.5932C8.73174 9.5932 9.0224 9.4732 9.26107 9.25053C9.47307 9.03853 9.58907 8.7452 9.58907 8.42653C9.58907 8.10653 9.47307 7.81453 9.25974 7.6012C9.1424 7.4852 9.00107 7.39453 8.8744 7.35186Z" fill="#00F6FF"/>
</svg>
