<svg width="39" height="40" viewBox="0 0 39 40" fill="none" xmlns="http://www.w3.org/2000/svg">
<path d="M34.4965 4.93123C33.6962 4.10982 32.5117 3.8038 31.4072 4.12592L5.6527 11.6153C4.48742 11.939 3.66148 12.8684 3.43899 14.0489C3.2117 15.2505 4.00562 16.7757 5.04285 17.4135L13.0957 22.363C13.9217 22.8703 14.9877 22.7431 15.6712 22.0537L24.8926 12.7749C25.3568 12.2918 26.1251 12.2918 26.5893 12.7749C27.0535 13.242 27.0535 13.999 26.5893 14.4822L17.3519 23.7626C16.6668 24.4503 16.5388 25.5214 17.043 26.3525L21.9634 34.4861C22.5396 35.4525 23.532 36.0001 24.6205 36.0001C24.7485 36.0001 24.8926 36.0001 25.0206 35.984C26.2691 35.8229 27.2615 34.9693 27.6297 33.7613L35.2648 8.03973C35.601 6.94451 35.2968 5.75265 34.4965 4.93123" fill="#00F6FF"/>
</svg>
